<svg width="18" height="17" viewBox="0 0 18 17" fill="none" xmlns="http://www.w3.org/2000/svg">
<path d="M11.7744 5.77002V1.81102C11.7744 1.53502 11.6654 1.27002 11.4694 1.07502C11.2744 0.879019 11.0094 0.77002 10.7334 0.77002H2.3994C2.1234 0.77002 1.8584 0.879019 1.6634 1.07502C1.4674 1.27002 1.3584 1.53502 1.3584 1.81102V10.145C1.3584 10.421 1.4674 10.686 1.6634 10.881C1.8584 11.077 2.1234 11.186 2.3994 11.186H6.3584M7.3994 5.77002H15.7334C16.0094 5.77002 16.2744 5.87902 16.4694 6.07502C16.6654 6.27002 16.7744 6.53502 16.7744 6.81102V15.145C16.7744 15.421 16.6654 15.686 16.4694 15.881C16.2744 16.077 16.0094 16.186 15.7334 16.186H7.3994C6.8244 16.185 6.3594 15.72 6.3584 15.145V6.81102C6.3584 6.53502 6.4674 6.27002 6.6634 6.07502C6.8584 5.87902 7.1234 5.77002 7.3994 5.77002Z" stroke="#7E7E7E" stroke-width="1.5" stroke-linecap="round" stroke-linejoin="round"/>
</svg>
