<svg width="16" height="16" viewBox="0 0 16 16" fill="none" xmlns="http://www.w3.org/2000/svg">
<path d="M8 0.189941C8.46 0.189941 8.833 0.562941 8.833 1.02294V6.85694H14.667C15.127 6.85694 15.5 7.22994 15.5 7.68994C15.5 8.14994 15.127 8.52294 14.667 8.52294H8.833V14.3569C8.833 14.8169 8.46 15.1899 8 15.1899C7.54 15.1899 7.167 14.8169 7.167 14.3569V8.52294H1.333C0.873 8.52294 0.5 8.14994 0.5 7.68994C0.5 7.22994 0.873 6.85694 1.333 6.85694H7.167V1.02294C7.167 0.562941 7.54 0.189941 8 0.189941Z" fill="#7E7E7E"/>
</svg>
