<svg width="1048" height="906" viewBox="0 0 1048 906" fill="none" xmlns="http://www.w3.org/2000/svg">
<path d="M200.968 178.966C332.276 117.29 429.763 7.86501 477.511 -127.42L477.539 -127.5V-127.586C477.539 -131.323 479.364 -136.951 481.271 -140.888L510.671 -131.087L510.677 -131.086C566.158 -113.252 617.669 -83.558 657.324 -42.014C595.733 96.872 488.542 207.976 351.603 273.469C254.278 319.153 174.798 394.579 125.039 483.916C89.363 462.157 51.724 444.344 14.087 430.478L14.003 430.447H13.914C10.177 430.447 4.549 428.622 0.612 426.716L10.413 397.315C42.174 302.03 109.665 222.633 200.969 178.966M628.316 542.709L628.318 542.708C753.471 483.112 854.816 393.751 928.387 282.557C965.904 306.214 1005.4 325.95 1046.86 337.864L1037.09 367.184L1037.08 367.193C1007.31 462.465 937.841 541.863 846.533 585.533C715.224 647.209 617.737 756.634 569.989 891.919L569.961 892V892.086C569.961 895.823 568.136 901.451 566.23 905.387L536.829 895.587L536.823 895.585C487.299 879.737 441.732 854.006 404.066 820.367L413.91 786.898L413.913 786.889C449.65 679.684 527.076 590.351 628.316 542.709ZM399.736 375.767L399.741 375.764C540.657 308.283 655.828 199.211 729.443 64.357C757.2 123.523 794.752 172.9 840.145 216.378C778.586 313.535 689.299 392.851 582.176 444.429C465.12 499.981 373.786 597.079 323.953 715.992L321.708 711.502L320.808 709.7L320.555 709.195L320.489 709.062L320.472 709.028L320.469 709.023L320.468 709.02C292.676 651.452 256.954 599.815 213.298 558.072C253.019 478.811 318.461 413.43 399.736 375.767Z" stroke="#171717" stroke-opacity="0.05" stroke-miterlimit="10"/>
</svg>
